name Walk10.mot
datacolumns 19
datarows 12
range 1.17300000 1.18400000
endheader

                time	   L_ground_force_vx	   L_ground_force_vy	   L_ground_force_vz	   L_ground_force_px	   L_ground_force_py	   L_ground_force_pz	   R_ground_force_vx	   R_ground_force_vy	   R_ground_force_vz	   R_ground_force_px	   R_ground_force_py	   R_ground_force_pz	   L_ground_torque_x	   L_ground_torque_y	   L_ground_torque_z	   R_ground_torque_x	   R_ground_torque_y	   R_ground_torque_z	
          1.17300000	         21.39633108	        739.41214214	        -22.87747984	         -0.23849383	          0.00000000	          0.19967997	          0.02027453	          0.35108841	         -0.04104416	          0.00032122	          0.00000000	          0.00013383	          0.00000000	          1.73194262	          0.00000000	          0.00000000	          0.00163140	          0.00000000	
          1.17400000	         22.11516806	        740.86034509	        -23.02120494	         -0.23835232	          0.00000000	          0.19971761	          0.01970101	          0.36439782	         -0.04210548	          0.00032836	          0.00000000	          0.00013655	          0.00000000	          1.73760566	          0.00000000	          0.00000000	          0.00186156	          0.00000000	
          1.17500000	         22.84122577	        742.31764976	        -23.16489948	         -0.23821091	          0.00000000	          0.19975473	          0.01899282	          0.37743909	         -0.04309154	          0.00033480	          0.00000000	          0.00013896	          0.00000000	          1.74349484	          0.00000000	          0.00000000	          0.00210542	          0.00000000	
          1.17600000	         23.57447811	        743.78424083	        -23.30844618	         -0.23806954	          0.00000000	          0.19979131	          0.01814039	          0.39013342	         -0.04399126	          0.00034045	          0.00000000	          0.00014102	          0.00000000	          1.74962835	          0.00000000	          0.00000000	          0.00236325	          0.00000000	
          1.17700000	         24.31489070	        745.26029383	        -23.45173571	         -0.23792817	          0.00000000	          0.19982731	          0.01713383	          0.40239616	         -0.04479290	          0.00034523	          0.00000000	          0.00014270	          0.00000000	          1.75602332	          0.00000000	          0.00000000	          0.00263527	          0.00000000	
          1.17800000	         25.06242225	        746.74597292	        -23.59466576	         -0.23778675	          0.00000000	          0.19986268	          0.01596297	          0.41413655	         -0.04548405	          0.00034902	          0.00000000	          0.00014394	          0.00000000	          1.76269561	          0.00000000	          0.00000000	          0.00292169	          0.00000000	
          1.17900000	         25.81702613	        748.24142859	        -23.73714041	         -0.23764525	          0.00000000	          0.19989738	          0.01461739	          0.42525758	         -0.04605158	          0.00035173	          0.00000000	          0.00014469	          0.00000000	          1.76965954	          0.00000000	          0.00000000	          0.00322266	          0.00000000	
          1.18000000	         26.57865185	        749.74679541	        -23.87906986	         -0.23750364	          0.00000000	          0.19993138	          0.01308639	          0.43565575	         -0.04648166	          0.00035323	          0.00000000	          0.00014493	          0.00000000	          1.77692771	          0.00000000	          0.00000000	          0.00353829	          0.00000000	
          1.18100000	         27.34724643	        751.26218997	        -24.02037023	         -0.23736189	          0.00000000	          0.19996464	          0.01135909	          0.44522095	         -0.04675973	          0.00035342	          0.00000000	          0.00014458	          0.00000000	          1.78451073	          0.00000000	          0.00000000	          0.00386863	          0.00000000	
          1.18200000	         28.12275547	        752.78770960	        -24.16096331	         -0.23722000	          0.00000000	          0.19999711	          0.00942436	          0.45383627	         -0.04687054	          0.00035216	          0.00000000	          0.00014361	          0.00000000	          1.79241716	          0.00000000	          0.00000000	          0.00421370	          0.00000000	
          1.18300000	         28.90512380	        754.32343196	        -24.30077606	         -0.23707794	          0.00000000	          0.20002878	          0.00727093	          0.46137788	         -0.04679807	          0.00034933	          0.00000000	          0.00014195	          0.00000000	          1.80065357	          0.00000000	          0.00000000	          0.00457343	          0.00000000	
          1.18400000	         29.69429555	        755.86941567	        -24.43973999	         -0.23693571	          0.00000000	          0.20005961	          0.00488736	          0.46771484	         -0.04652559	          0.00034479	          0.00000000	          0.00013955	          0.00000000	          1.80922468	          0.00000000	          0.00000000	          0.00494769	          0.00000000	
